<?xml version="1.0" encoding="utf-8"?>
<!-- Generator: Adobe Illustrator 23.1.1, SVG Export Plug-In . SVG Version: 6.00 Build 0)  -->
<svg version="1.1" id="Layer_1" xmlns="http://www.w3.org/2000/svg" xmlns:xlink="http://www.w3.org/1999/xlink" x="0px" y="0px"
	 viewBox="0 0 100.3 112.3" style="enable-background:new 0 0 100.3 112.3;" xml:space="preserve">
<style type="text/css">
	.st0{fill:#E7AA21;stroke:#FFFFFF;stroke-width:2;stroke-miterlimit:10;}
	.st1{fill:#75A942;stroke:#FFFFFF;stroke-width:2;stroke-miterlimit:10;}
	.st2{fill:#2F5F8A;stroke:#2F5F8A;stroke-width:2;stroke-miterlimit:10;}
</style>
<title>webchin-meko-logo-svg</title>
<g>
	<g id="Dots">
		<path class="st0" d="M84.4,29.4c1.1,2.7,1.8,5.5,2,8.3c0.2,2.7,0.1,5.4-0.2,8.1l-4.5,36.7l-1.1,7.8l-0.9,6.9l-0.5,2
			c-0.2,0.7-0.4,1.3-0.6,2c-0.1,0.2-0.3,0.5-0.6,1c-1.1,1.8-2.6,3.3-4.2,4.6c-0.5,0.4-1,0.7-1.5,0.9c-2.1,0.7-4.3,0.8-6.4,0.4
			c-3.6-0.6-5.9-2-6.8-4.3c-0.3-0.8-0.7-1.7-1.1-2.7c-0.4-1-0.6-2.1-0.6-3.2v-2.1c0-0.7,0.1-1.4,0.3-2.1l0.7-5.6l1.6-10.7l-0.4,0.1
			c-7.7,1.6-14.3,1.2-20-0.9c-2.9-1.1-5.6-2.6-8-4.4c-2.6-1.9-4.9-4.2-6.9-6.7c-4.2-5.1-6.8-11.3-7.6-17.8c-1-7.6,0.5-15.3,4.4-21.8
			c8.9-15.4,27.8-21.9,44.2-15.1C74.2,14,81,20.8,84.4,29.4z M61.8,38.8c-2.4-5.8-9.1-8.5-14.9-6.2c-2.9,1.1-5.2,3.3-6.3,6.2
			c-2.4,5.8,0.2,12.4,6,14.9c5.9,2.3,12.6-0.4,15.2-6.1C63,44.7,63,41.6,61.8,38.8z"/>
		<path class="st1" d="M85,34.5c0.7,2.8,0.9,5.7,0.6,8.6c-0.3,2.7-0.8,5.3-1.5,7.9L73.8,86.5L71.4,94l-2,6.7l-0.8,1.9
			c-0.3,0.6-0.6,1.2-0.9,1.8c-0.1,0.1-0.4,0.4-0.8,0.9c-1.4,1.6-3.1,2.9-4.9,3.9c-0.5,0.3-1.1,0.5-1.6,0.6c-2.2,0.4-4.4,0.1-6.4-0.7
			c-3.5-1.1-5.5-2.9-6-5.3c-0.2-0.9-0.4-1.8-0.6-2.9c-0.2-1.1-0.3-2.2-0.1-3.3l0.4-2.1c0.1-0.7,0.3-1.4,0.6-2l1.6-5.4l3.3-10.3h-0.4
			c-7.8,0.3-14.4-1.1-19.6-4.2c-2.7-1.5-5.1-3.4-7.3-5.6c-2.2-2.3-4.1-4.9-5.7-7.7c-3.3-5.7-4.9-12.2-4.7-18.8
			c0.2-7.6,3-15,7.9-20.9C34.5,7,54.2,3.6,69.4,13C77.4,17.6,83.1,25.5,85,34.5z M61.2,40.2c-1.5-6.1-7.6-9.9-13.7-8.5
			c-3,0.6-5.6,2.5-7.2,5.1c-3.3,5.3-1.7,12.3,3.5,15.7c5.4,3.3,12.5,1.7,16-3.6C61.5,46.2,62,43.1,61.2,40.2L61.2,40.2z"/>
		<path class="st2" d="M84.5,41.7c0,2.9-0.4,5.7-1.3,8.4c-0.8,2.6-1.9,5.1-3.2,7.4L62,89.8l-4,6.8l-3.4,6.1l-1.2,1.7
			c-0.4,0.6-0.8,1.1-1.3,1.6c-0.1,0.1-0.5,0.3-1,0.7c-1.7,1.2-3.6,2.1-5.7,2.7c-0.6,0.2-1.2,0.2-1.8,0.2c-2.2-0.1-4.3-0.8-6.1-2.1
			c-3.1-1.9-4.7-4.1-4.7-6.5c0-0.9,0-1.9,0-2.9c0-1.1,0.3-2.2,0.6-3.3l0.8-1.9c0.3-0.7,0.6-1.3,1.1-1.8l2.8-4.9l5.5-9.3l-0.4-0.1
			c-7.7-1.4-13.7-4.3-18.2-8.4c-2.2-2.1-4.2-4.5-5.8-7.1c-1.6-2.8-2.9-5.7-3.8-8.8c-1.9-6.3-2.1-13-0.4-19.4
			c1.9-7.4,6.2-14,12.3-18.6c14-10.9,34-9.8,46.7,2.7C80.9,23.5,84.7,32.4,84.5,41.7z M60,41.8c-0.1-6.3-5.2-11.3-11.4-11.4
			c-3.1-0.1-6,1.1-8.2,3.3c-4.4,4.4-4.4,11.6,0,16.1c4.6,4.4,11.8,4.4,16.4,0C58.9,47.8,60.1,44.9,60,41.8z"/>
	</g>
</g>
</svg>
